# xmcd
#
# Track frame offsets: 
#        150
#        22726
#        34421
#        58617
#        125075
#        143984
#        155356
#        200138
#        253888
#
# Disc length: 3813 seconds
#
# Revision: 0
# Processed by: cddbd v1.5.2PL0 Copyright (c) Steve Scherf et al.
# Submitted via: ExactAudioCopy v1.0b1
#
DISCID=840ee309
DTITLE=Santana - Jingo
DYEAR=2001
DGENRE=Blues
TTITLE0=Soul Sacrifice
TTITLE1=Acapulco Sunrise
TTITLE2=Persuasion
TTITLE3=Santana Jam
TTITLE4=With A Little Help From My Friends
TTITLE5=Coconut Grove
TTITLE6=Jingo
TTITLE7=El Corazon Manda
TTITLE8=Everyday (I Have The Blues)
EXTD=
EXTT0=
EXTT1=
EXTT2=
EXTT3=
EXTT4=
EXTT5=
EXTT6=
EXTT7=
EXTT8=
PLAYORDER=
